<svg width="8" height="8" viewBox="0 0 8 8" fill="none" xmlns="http://www.w3.org/2000/svg">
<path d="M4.31997 7.03996H3.67997C3.59185 7.03996 3.51997 6.96871 3.51997 6.87996V4.83559L1.7431 5.85121C1.66747 5.89496 1.5706 5.86871 1.52622 5.79309L1.20622 5.24934C1.18435 5.21246 1.1781 5.16871 1.18935 5.12746C1.19997 5.08621 1.22685 5.05121 1.26372 5.02996L3.0406 3.99996L1.26372 2.97059C1.22685 2.94934 1.19997 2.91371 1.18935 2.87246C1.1781 2.83121 1.18435 2.78746 1.2056 2.75059L1.5256 2.20684C1.56997 2.13121 1.66747 2.10559 1.7431 2.14934L3.51997 3.16434V1.11996C3.51997 1.03184 3.59185 0.959961 3.67997 0.959961H4.31997C4.40872 0.959961 4.47997 1.03184 4.47997 1.11996V3.16434L6.25685 2.14934C6.33247 2.10559 6.42935 2.13121 6.47372 2.20684L6.79372 2.75059C6.8156 2.78746 6.82185 2.83121 6.8106 2.87246C6.79997 2.91371 6.7731 2.94934 6.73622 2.97059L4.95935 3.99996L6.73622 5.02934C6.77247 5.05121 6.79935 5.08621 6.8106 5.12746C6.82122 5.16871 6.8156 5.21246 6.79372 5.24934L6.47372 5.79309C6.42935 5.86871 6.33247 5.89496 6.25685 5.85059L4.47997 4.83559V6.87996C4.47997 6.96871 4.40872 7.03996 4.31997 7.03996Z" fill="#343A40"/>
</svg>
